HIERARCHY
ROOT SpineBase
{
  OFFSET 0.000000 0.000000 0.000000
  CHANNELS 6 Xposition Yposition Zposition Zrotation Xrotation Yrotation
  JOINT SpineMid
  {
    OFFSET 0.000000 32.750966 0.000000
    CHANNELS 3 Zrotation Xrotation Yrotation
    JOINT SpineShoulder
    {
      OFFSET -0.063348 24.334467 -0.886792
      CHANNELS 3 Zrotation Xrotation Yrotation
      JOINT Neck
      {
        OFFSET -0.068665 8.053195 -0.646577
        CHANNELS 3 Zrotation Xrotation Yrotation
        JOINT Head
        {
          OFFSET -3.106558 10.964334 2.086565
          CHANNELS 3 Zrotation Xrotation Yrotation
          End Site
          {
            OFFSET 0 0 0
          }
        }
      }
      JOINT ShoulderLeft
      {
        OFFSET -16.076162 -5.727083 8.710631
        CHANNELS 3 Zrotation Xrotation Yrotation
        JOINT ElbowLeft
        {
          OFFSET -1.123647 -27.100616 1.812979
          CHANNELS 3 Zrotation Xrotation Yrotation
          JOINT WristLeft
          {
            OFFSET -2.950003 -22.168409 -3.912107
            CHANNELS 3 Zrotation Xrotation Yrotation
            JOINT HandLeft
            {
              OFFSET 0.099912 -5.475611 -2.155518
              CHANNELS 3 Zrotation Xrotation Yrotation
              JOINT HandTipLeft
              {
                OFFSET -0.946471 -6.580369 -2.531041
                CHANNELS 3 Zrotation Xrotation Yrotation
                End Site
                {
                  OFFSET 0 0 0
                }
              }
              JOINT ThumbLeft
              {
                OFFSET 2.648367 -0.241102 -3.230176
                CHANNELS 3 Zrotation Xrotation Yrotation
                End Site
                {
                  OFFSET 0 0 0
                }
              }
            }
          }
        }
      }
      JOINT ShoulderRight
      {
        OFFSET 13.218528 -3.257370 -11.030223
        CHANNELS 3 Zrotation Xrotation Yrotation
        JOINT ElbowRight
        {
          OFFSET 7.482788 -25.844920 -3.047331
          CHANNELS 3 Zrotation Xrotation Yrotation
          JOINT WristRight
          {
            OFFSET -1.270095 -23.211277 -7.475516
            CHANNELS 3 Zrotation Xrotation Yrotation
            JOINT HandRight
            {
              OFFSET -1.380850 -6.924634 -1.738813
              CHANNELS 3 Zrotation Xrotation Yrotation
              JOINT HandTipRight
              {
                OFFSET -1.090699 -6.172102 -1.186086
                CHANNELS 3 Zrotation Xrotation Yrotation
                End Site
                {
                  OFFSET 0 0 0
                }
              }
              JOINT ThumbRight
              {
                OFFSET 2.547853 -1.526359 -2.720834
                CHANNELS 3 Zrotation Xrotation Yrotation
                End Site
                {
                  OFFSET 0 0 0
                }
              }
            }
          }
        }
      }
    }
  }
  JOINT HipLeft
  {
    OFFSET -6.848196 0.435639 -0.361865
    CHANNELS 3 Zrotation Xrotation Yrotation
    JOINT KneeLeft
    {
      OFFSET 0.087228 -35.046566 -0.103496
      CHANNELS 3 Zrotation Xrotation Yrotation
      JOINT AnkleLeft
      {
        OFFSET 1.563368 -34.580377 3.653616
        CHANNELS 3 Zrotation Xrotation Yrotation
        JOINT FootLeft
        {
          OFFSET -5.752627 -4.528938 -10.848334
          CHANNELS 3 Zrotation Xrotation Yrotation
          End Site
          {
            OFFSET 0 0 0
          }
        }
      }
    }
  }
  JOINT HipRight
  {
    OFFSET 5.454746 1.634892 -7.469031
    CHANNELS 3 Zrotation Xrotation Yrotation
    JOINT KneeRight
    {
      OFFSET 6.571652 -33.281452 -4.098339
      CHANNELS 3 Zrotation Xrotation Yrotation
      JOINT AnkleRight
      {
        OFFSET 3.529744 -36.796896 4.790741
        CHANNELS 3 Zrotation Xrotation Yrotation
        JOINT FootRight
        {
          OFFSET -4.531134 -4.666418 -11.032531
          CHANNELS 3 Zrotation Xrotation Yrotation
          End Site
          {
            OFFSET 0 0 0
          }
        }
      }
    }
  }
}
MOTION
Frames: 13
Frame Time: 0.033333
63.819810 77.358176 354.878088 -0.335312 -0.081999 31.017994 0.329619 -0.102516 -31.017939 -0.000000 0.000000 0.000000 2.499446 -0.003147 -0.473627 0.000000 0.000000 0.000000 -24.245044 -17.911315 -4.682966 32.658672 25.962932 -8.778339 -2.639354 -13.491003 0.969910 5.091840 11.505013 -3.929038 0.000000 0.000000 0.000000 0.000000 0.000000 0.000000 0.564558 -0.736491 -0.275990 -0.568146 0.733727 0.283256 3.433042 1.515826 -1.213207 1.737467 -0.921627 0.136523 0.000000 0.000000 0.000000 0.000000 0.000000 0.000000 0.329619 -0.102516 -31.017939 -0.000000 0.000000 0.000000 4.490235 -7.880815 -0.542159 0.000000 0.000000 0.000000 0.329619 -0.102516 -31.017939 -0.282332 -0.960995 -0.131199 5.989884 -11.478870 -1.028465 0.000000 0.000000 0.000000
63.835588 77.353769 354.879596 -0.329656 -0.097422 30.999013 0.332747 -0.086273 -30.999043 -0.000000 0.000000 0.000000 2.464106 -0.074022 -0.485483 0.000000 0.000000 0.000000 -29.570243 -20.719661 -6.525302 35.999289 22.267791 -8.414702 6.560966 3.944791 -3.864847 -4.111337 -2.815680 1.120254 0.000000 0.000000 0.000000 0.000000 0.000000 0.000000 0.573337 -0.791958 -0.292750 -0.577431 0.788979 0.300688 3.550947 1.245234 -1.182914 0.023086 -0.307992 0.299286 0.000000 0.000000 0.000000 0.000000 0.000000 0.000000 0.332747 -0.086273 -30.999043 -0.000000 0.000000 0.000000 4.172111 -7.699531 0.097765 0.000000 0.000000 0.000000 0.332747 -0.086273 -30.999043 -0.451937 -0.852967 -0.143941 5.858216 -11.831564 0.365911 0.000000 0.000000 0.000000
63.864747 77.341708 354.864780 -0.307595 -0.096642 30.932923 0.313523 -0.075218 -30.932977 -0.000000 0.000000 0.000000 2.449462 -0.127665 -0.496751 0.000000 0.000000 0.000000 -31.534645 -21.228033 -7.154542 33.442451 18.557098 -5.864356 13.406904 14.884529 -8.061183 -10.673987 -8.129908 2.389309 0.000000 0.000000 0.000000 0.000000 0.000000 0.000000 0.579092 -0.847622 -0.309227 -0.583721 0.844441 0.317812 3.807676 0.650387 -1.113554 -0.450907 -0.302540 0.387472 0.000000 0.000000 0.000000 0.000000 0.000000 0.000000 0.313523 -0.075218 -30.932977 -0.000000 0.000000 0.000000 4.119118 -8.179578 1.061267 0.000000 0.000000 0.000000 0.313523 -0.075218 -30.932977 -0.523657 -0.680362 -0.136506 2.567815 -4.108910 0.024654 0.000000 0.000000 0.000000
63.891820 77.328779 354.851530 -0.283829 -0.096773 30.849021 0.293296 -0.062460 -30.849100 -0.000000 0.000000 0.000000 2.435721 -0.165531 -0.504080 0.000000 0.000000 0.000000 -30.808516 -20.431846 -6.778591 25.263296 16.250747 -1.532149 24.158166 22.315415 -12.668921 -17.520470 -8.874763 1.756952 0.000000 0.000000 0.000000 0.000000 0.000000 0.000000 0.582119 -0.900417 -0.324585 -0.587283 0.897058 0.333757 3.832033 0.162316 -1.006732 0.028856 0.293368 0.163467 0.000000 0.000000 0.000000 0.000000 0.000000 0.000000 0.293296 -0.062460 -30.849100 -0.000000 0.000000 0.000000 6.384522 -12.807951 2.642330 0.000000 0.000000 0.000000 0.293296 -0.062460 -30.849100 -0.527633 -0.635293 -0.132524 2.567332 -3.790305 -0.371103 0.000000 0.000000 0.000000
63.926586 77.318560 354.821997 -0.254219 -0.081398 30.782997 0.260061 -0.060177 -30.783041 -0.000000 0.000000 0.000000 2.440338 -0.237791 -0.523830 0.000000 0.000000 0.000000 -30.146329 -20.317415 -6.583313 15.333071 22.911223 3.004850 36.097823 23.430800 -13.394284 -36.356810 3.323208 0.175450 0.000000 0.000000 0.000000 0.000000 0.000000 0.000000 0.578931 -0.941423 -0.335911 0.174365 0.512078 0.115479 3.185749 0.401220 -0.794704 0.317516 2.465490 -0.360639 0.000000 0.000000 0.000000 0.000000 0.000000 0.000000 0.260061 -0.060177 -30.783041 -0.000000 0.000000 0.000000 7.047304 -14.024833 2.980597 0.000000 0.000000 0.000000 0.260061 -0.060177 -30.783041 -0.506491 -0.686374 -0.134770 0.922175 -0.109064 -0.085546 0.000000 0.000000 0.000000
63.958215 77.309176 354.796395 -0.231901 -0.075945 30.755360 0.238122 -0.053324 -30.755402 -0.000000 0.000000 0.000000 2.476804 -0.318600 -0.551712 0.000000 0.000000 0.000000 -30.953903 -18.904431 -6.460970 -1.473686 56.116788 15.614503 51.853059 3.957163 5.717590 -60.342144 29.796390 1.099994 0.000000 0.000000 0.000000 0.000000 0.000000 0.000000 0.566795 -0.983761 -0.346649 0.332212 0.539561 0.077794 3.371898 0.195490 -0.782902 0.950716 3.869289 -0.804981 0.000000 0.000000 0.000000 0.000000 0.000000 0.000000 0.238122 -0.053324 -30.755402 -0.000000 0.000000 0.000000 6.116331 -12.612219 3.140967 0.000000 0.000000 0.000000 0.238122 -0.053324 -30.755402 -0.491357 -0.804066 -0.144479 1.733522 -0.764922 -1.331143 0.000000 0.000000 0.000000
63.983231 77.302863 354.779949 -0.217469 -0.081004 30.741471 0.228317 -0.041542 -30.741542 -0.000000 0.000000 0.000000 2.535589 -0.409132 -0.586198 0.000000 0.000000 0.000000 -35.951881 -23.638325 -9.006921 -143.011344 55.207024 158.980602 84.419322 75.381007 11.331657 -106.792713 26.094105 -80.528665 0.000000 0.000000 0.000000 0.000000 0.000000 0.000000 0.548886 -1.018989 -0.354749 0.475039 0.587030 0.042476 3.108857 0.194996 -0.707054 2.156288 5.529688 -1.468897 0.000000 0.000000 0.000000 0.000000 0.000000 0.000000 0.228317 -0.041542 -30.741542 -0.000000 0.000000 0.000000 9.334638 -18.108633 4.421742 0.000000 0.000000 0.000000 0.228317 -0.041542 -30.741542 -0.420653 -0.895620 -0.143873 3.850286 -3.907230 -3.678848 0.000000 0.000000 0.000000
63.990061 77.296174 354.779924 -0.223771 -0.091134 30.781468 0.238887 -0.036223 -30.781571 -0.000000 0.000000 0.000000 2.583731 -0.493776 -0.617105 0.000000 0.000000 0.000000 -38.175627 -26.803220 -10.615790 -154.279002 41.736365 174.674533 125.619818 74.401897 6.180618 -154.977595 60.374701 -48.151744 0.000000 0.000000 0.000000 0.000000 0.000000 0.000000 0.535028 -1.063872 -0.366050 0.648809 0.628153 -0.000653 2.636565 0.245196 -0.584606 3.273644 5.160758 -1.653785 0.000000 0.000000 0.000000 0.000000 0.000000 0.000000 0.238887 -0.036223 -30.781571 -0.000000 0.000000 0.000000 7.533653 -15.101774 3.709770 0.000000 0.000000 0.000000 0.238887 -0.036223 -30.781571 -0.365953 -0.889834 -0.135750 8.617714 -12.906815 -7.866342 0.000000 0.000000 0.000000
63.989660 77.292407 354.772557 -0.235047 -0.113125 30.821685 0.259811 -0.023283 -30.821864 -0.000000 0.000000 0.000000 2.654360 -0.516968 -0.636090 0.000000 0.000000 0.000000 -34.209235 -26.292269 -9.203634 -147.535619 39.846000 159.890210 -113.033003 73.446958 -166.548835 -108.386045 23.767511 -120.793475 0.000000 0.000000 0.000000 0.000000 0.000000 0.000000 0.536743 -1.115086 -0.380840 0.755945 0.673923 -0.023006 1.610902 1.124882 -0.509263 4.830408 6.104981 -2.211123 0.000000 0.000000 0.000000 0.000000 0.000000 0.000000 0.259811 -0.023283 -30.821864 -0.000000 0.000000 0.000000 4.140008 -8.987732 2.407637 0.000000 0.000000 0.000000 0.259811 -0.023283 -30.821864 -0.347398 -0.931178 -0.137272 9.409876 -14.540623 -8.518484 0.000000 0.000000 0.000000
64.003455 77.287201 354.743766 -0.229051 -0.135165 30.828146 0.265955 -0.001315 -30.828413 -0.000000 0.000000 0.000000 2.745549 -0.462178 -0.638614 0.000000 0.000000 0.000000 -28.782113 -24.308816 -7.089537 -145.726255 49.468444 152.810444 -135.010475 41.543727 -146.446529 -124.716692 33.387972 -139.604978 0.000000 0.000000 0.000000 0.000000 0.000000 0.000000 0.548380 -1.158418 -0.394441 0.811108 0.698687 -0.031264 0.493811 1.830163 -0.358503 5.118182 5.988142 -2.207210 0.000000 0.000000 0.000000 0.000000 0.000000 0.000000 0.265955 -0.001315 -30.828413 -0.000000 0.000000 0.000000 2.702057 -6.160768 1.788875 0.000000 0.000000 0.000000 0.265955 -0.001315 -30.828413 -0.348532 -0.939275 -0.138229 10.201787 -17.207215 -7.487394 0.000000 0.000000 0.000000
64.015727 77.282271 354.701263 -0.217699 -0.159086 30.813157 0.268459 0.025115 -30.813518 -0.000000 0.000000 0.000000 2.847405 -0.384683 -0.637332 0.000000 0.000000 0.000000 -22.212139 -20.612166 -4.634627 -128.295004 73.521322 132.350776 -147.771237 3.028702 -138.496228 -151.402423 49.465438 -147.853554 0.000000 0.000000 0.000000 0.000000 0.000000 0.000000 0.579889 -1.193471 -0.407790 0.804244 0.685307 -0.022960 -0.545698 2.566401 -0.221125 5.229531 4.476696 -1.842957 0.000000 0.000000 0.000000 0.000000 0.000000 0.000000 0.268459 0.025115 -30.813518 -0.000000 0.000000 0.000000 1.888992 -4.475314 1.395856 0.000000 0.000000 0.000000 0.268459 0.025115 -30.813518 -0.354479 -0.922273 -0.137372 8.578679 -14.717918 -5.049168 0.000000 0.000000 0.000000
64.029332 77.278503 354.641400 -0.197183 -0.169736 30.758117 0.256251 0.045017 -30.758510 -0.000000 0.000000 0.000000 2.937843 -0.311397 -0.635159 0.000000 0.000000 0.000000 -15.900392 -15.957036 -2.607646 7.668534 53.341279 -0.705681 -28.015445 -62.751831 -14.389340 6.585093 48.571468 1.734106 0.000000 0.000000 0.000000 0.000000 0.000000 0.000000 0.604427 -1.224412 -0.419208 0.752432 0.655292 0.001827 -1.317591 2.909522 -0.068154 4.367056 4.907846 -1.744812 0.000000 0.000000 0.000000 0.000000 0.000000 0.000000 0.256251 0.045017 -30.758510 -0.000000 0.000000 0.000000 3.505792 -6.927332 0.761947 0.000000 0.000000 0.000000 0.256251 0.045017 -30.758510 -0.375192 -0.891195 -0.137160 5.499582 -9.965428 -1.361362 0.000000 0.000000 0.000000
64.041200 77.271569 354.578173 -0.171827 -0.177448 30.657888 0.238293 0.065028 -30.658290 -0.000000 0.000000 0.000000 2.978295 -0.186011 -0.610465 0.000000 0.000000 0.000000 -8.154179 -9.138283 -0.812715 4.332665 24.508546 -0.755014 -4.824838 -20.032447 2.555056 2.011417 10.842652 -0.987570 0.000000 0.000000 0.000000 0.000000 0.000000 0.000000 0.631258 -1.235736 -0.425276 0.662910 0.580447 0.035347 -1.901495 3.116262 0.065857 4.293634 4.321459 -1.608433 0.000000 0.000000 0.000000 0.000000 0.000000 0.000000 0.238293 0.065028 -30.658290 -0.000000 0.000000 0.000000 3.012127 -5.588386 0.040354 0.000000 0.000000 0.000000 -0.616865 -0.045409 -30.679389 0.265040 -0.173225 -0.102067 4.888342 -7.428521 -2.867582 0.000000 0.000000 0.000000
